<svg width="46" height="46" viewBox="0 0 46 46" fill="none" xmlns="http://www.w3.org/2000/svg">
<path d="M22.9537 11.4769C21.535 11.4769 20.1481 11.8976 18.9685 12.6857C17.789 13.4739 16.8696 14.5942 16.3267 15.9049C15.7837 17.2156 15.6417 18.6578 15.9185 20.0493C16.1952 21.4407 16.8784 22.7188 17.8816 23.722C18.8847 24.7252 20.1628 25.4083 21.5543 25.6851C22.9457 25.9619 24.388 25.8198 25.6987 25.2769C27.0094 24.734 28.1296 23.8146 28.9178 22.635C29.706 21.4554 30.1267 20.0686 30.1267 18.6499C30.1267 16.7475 29.371 14.923 28.0258 13.5778C26.6806 12.2326 24.8561 11.4769 22.9537 11.4769ZM22.9537 22.9537C22.1025 22.9537 21.2704 22.7013 20.5626 22.2284C19.8548 21.7555 19.3032 21.0833 18.9775 20.2969C18.6517 19.5105 18.5665 18.6451 18.7325 17.8103C18.8986 16.9754 19.3085 16.2085 19.9104 15.6066C20.5123 15.0047 21.2792 14.5948 22.114 14.4288C22.9489 14.2627 23.8142 14.3479 24.6007 14.6737C25.3871 14.9994 26.0593 15.5511 26.5322 16.2588C27.0051 16.9666 27.2575 17.7987 27.2575 18.6499C27.2562 19.7909 26.8023 20.8849 25.9955 21.6917C25.1887 22.4986 24.0947 22.9524 22.9537 22.9537Z" fill="#F1F1F1"/>
<path d="M22.9537 2.8692C18.9813 2.8692 15.0982 4.04714 11.7953 6.25404C8.49247 8.46095 5.9182 11.5977 4.39805 15.2677C2.8779 18.9376 2.48016 22.9759 3.25513 26.872C4.03009 30.768 5.94295 34.3467 8.75181 37.1555C11.5607 39.9644 15.1394 41.8773 19.0354 42.6522C22.9314 43.4272 26.9697 43.0294 30.6397 41.5093C34.3096 39.9891 37.4464 37.4149 39.6533 34.112C41.8602 30.8091 43.0381 26.926 43.0381 22.9537C43.0321 17.6288 40.9142 12.5237 37.1489 8.75843C33.3836 4.99316 28.2786 2.8752 22.9537 2.8692ZM14.346 37.8398V35.8651C14.3473 34.7241 14.8011 33.6301 15.608 32.8232C16.4148 32.0164 17.5088 31.5626 18.6499 31.5613H27.2575C28.3985 31.5626 29.4925 32.0164 30.2994 32.8232C31.1062 33.6301 31.5601 34.7241 31.5613 35.8651V37.8398C28.9491 39.3651 25.9786 40.1689 22.9537 40.1689C19.9288 40.1689 16.9582 39.3651 14.346 37.8398ZM34.4198 35.7587C34.3912 33.8768 33.6245 32.0815 32.2847 30.7597C30.945 29.4378 29.1396 28.6953 27.2575 28.6921H18.6499C16.7678 28.6953 14.9624 29.4378 13.6226 30.7597C12.2829 32.0815 11.5161 33.8768 11.4876 35.7587C8.88603 33.4357 7.05141 30.3773 6.22667 26.9884C5.40192 23.5996 5.62595 20.0402 6.86909 16.7815C8.11223 13.5228 10.3158 10.7186 13.1881 8.74013C16.0604 6.76167 19.4659 5.7023 22.9537 5.7023C26.4414 5.7023 29.8469 6.76167 32.7192 8.74013C35.5915 10.7186 37.7951 13.5228 39.0383 16.7815C40.2814 20.0402 40.5054 23.5996 39.6807 26.9884C38.8559 30.3773 37.0213 33.4357 34.4198 35.7587Z" fill="#F1F1F1"/>
</svg>
